<svg width="188" height="47" viewBox="0 0 188 47" fill="none" xmlns="http://www.w3.org/2000/svg">
    <path d="M19.9326 15.8491C19.7799 15.6963 19.5314 15.6211 19.1849 15.6211H19.1644C18.5991 17.0549 18.2891 18.6119 18.2891 20.2395C18.2891 20.4538 18.2936 20.6658 18.305 20.8778C18.3096 20.9621 18.3141 21.0465 18.321 21.1308C18.8225 19.9249 19.324 18.719 19.8301 17.5154C19.9965 17.1393 20.0922 16.8863 20.1196 16.7563C20.1492 16.6241 20.1629 16.5238 20.1629 16.4531C20.1629 16.2047 20.0854 16.0018 19.9326 15.8491Z"
          fill="white"/>
    <path d="M17.6211 20.8778C17.6257 20.9621 17.6302 21.0465 17.6371 21.1308C16.3491 24.2311 15.0771 27.3381 13.8188 30.4497C12.0704 34.7695 10.2946 39.0665 8.49142 43.3408C8.2817 43.8263 7.91469 44.0702 7.3881 44.0702H5.72173C5.08345 44.0702 4.76431 43.8331 4.76431 43.3613C4.76431 43.2359 4.79168 43.09 4.84866 42.9236L7.84402 35.6198L0.18692 17.0983C0.102576 16.9045 0.0524314 16.7335 0.0296356 16.5876C0.00911942 16.444 0 16.3414 0 16.2867C0 15.8422 0.298621 15.6211 0.89359 15.6211H2.66254C2.92698 15.6211 3.15265 15.6872 3.33957 15.8194C3.5265 15.9516 3.661 16.134 3.74534 16.3711C4.20354 17.577 4.68225 18.8148 5.18147 20.0845C5.6807 21.3542 6.18449 22.6262 6.69055 23.9028C7.19662 25.1794 7.70269 26.4491 8.20876 27.712C8.71483 28.9749 9.21861 30.2081 9.71784 31.4163L15.6698 16.3072C15.7815 16.0588 15.9274 15.881 16.1075 15.7761C16.2876 15.6735 16.5155 15.6211 16.7936 15.6211H18.4805C17.9152 17.0549 17.6052 18.6119 17.6052 20.2395C17.6052 20.4538 17.6097 20.6658 17.6211 20.8778Z"
          fill="white"/>
    <path d="M62.7431 19.4848C62.677 20.2051 62.5334 20.8502 62.3784 21.3928V16.5783C62.3784 16.4142 62.4035 16.2683 62.4536 16.1475C62.693 17.0639 62.8594 18.2014 62.7431 19.4848Z"
          fill="white"/>
    <path d="M65.9776 16.5785V35.1206C65.9776 35.3987 65.8956 35.6198 65.7292 35.7862C65.5628 35.9526 65.3394 36.037 65.0635 36.037H63.689C63.3698 36.037 63.1305 35.9504 62.9709 35.7771C62.8113 35.6039 62.7315 35.385 62.7315 35.1206C62.6631 34.8014 62.5993 34.4891 62.5446 34.1837C62.4899 33.8782 62.4329 33.5659 62.3782 33.2468C62.0591 33.6503 61.708 34.0446 61.3273 34.4344C60.9466 34.822 60.5226 35.1685 60.0576 35.4739C59.5925 35.7794 59.0865 36.0233 58.5394 36.2034C57.99 36.3835 57.3973 36.4724 56.759 36.4724C55.5668 36.4724 54.4498 36.2467 53.4081 35.7976C52.3686 35.3463 51.4636 34.7285 50.6931 33.9443C49.9249 33.1647 49.3208 32.2552 48.8785 31.2111L49.2752 31.0743C49.2843 30.8304 49.396 30.55 49.5419 30.5158C49.6673 30.4862 49.8268 30.6344 49.9727 30.7712C49.991 30.7871 50.0069 30.8031 50.0206 30.8167L50.4218 30.6777C50.5837 30.623 50.668 30.4475 50.6133 30.2856L50.3967 29.661C50.3967 29.6428 50.3922 29.6222 50.3853 29.6017L49.3071 26.4764L49.3003 26.4787L49.184 26.1459L49.1908 26.1436L48.8831 25.2477C48.8261 25.0836 48.646 24.9947 48.4796 25.0517L48.2061 25.1452V16.7244C48.2061 16.3642 48.3041 16.093 48.4978 15.9129C48.6916 15.7328 48.9264 15.6416 49.2045 15.6416H50.2007C50.0252 16.5626 49.9841 17.4789 49.9773 17.6613C49.9408 18.6734 50.0525 19.4827 50.1391 19.7973C50.0981 19.9067 50.0935 20.0913 50.203 20.1688C50.2691 20.2144 50.3876 20.2258 50.4309 20.1711C50.5153 20.0617 50.3033 19.6924 50.2075 19.7129H50.2052C50.1414 19.0815 49.8975 17.2647 50.8891 15.8376C50.9347 15.7715 50.9826 15.7077 51.0327 15.6462C51.3291 15.6644 51.532 15.7487 51.6391 15.8923C51.7166 15.9949 51.769 16.1317 51.7987 16.305C51.5388 16.3939 51.2584 16.7062 51.1171 16.9774C50.7957 17.5975 51.0692 18.2403 51.1171 18.3452C51.1536 18.3475 51.4955 18.3725 51.826 18.2266V20.105C51.1308 20.4606 50.3238 21.181 50.4332 21.7645C50.5039 22.1407 50.9529 22.4553 51.345 22.4484C51.5137 22.4461 51.6756 22.3823 51.826 22.2752V27.8579C51.826 28.5508 51.9719 29.2028 52.2637 29.8137C52.5487 30.4087 52.9271 30.9307 53.4035 31.3798C53.5266 31.9429 53.7386 32.5629 54.0805 33.1624C54.2994 33.5454 55.2841 35.2733 56.5881 35.214C56.9802 35.1958 57.4657 35.0134 57.4999 34.7581C57.5546 34.3501 56.3989 34.1312 55.4483 33.3904C54.9673 33.0165 54.6117 32.5652 54.3495 32.1024C54.5934 32.2529 54.8533 32.3851 55.1246 32.4991C55.756 32.7612 56.4194 32.8934 57.1124 32.8934C57.778 32.8934 58.4231 32.7658 59.0477 32.5082C59.6723 32.2529 60.224 31.8995 60.7027 31.4482C61.1814 30.9968 61.5689 30.4703 61.8676 29.8662C62.1662 29.2621 62.3372 28.6147 62.3782 27.9194V22.5419C62.7612 21.9697 63.233 21.026 63.4268 19.9409C63.7095 18.3566 63.3333 16.8543 62.8501 15.7328C62.9823 15.6712 63.1373 15.6416 63.3151 15.6416H64.0263C63.9762 16.0656 63.9807 16.4828 64.1107 16.5215C64.2543 16.5648 64.5734 16.1454 64.7307 15.6416H65.0202C65.6585 15.6416 65.9776 15.9539 65.9776 16.5785Z"
          fill="white"/>
    <path d="M81.9942 17.0365C81.9942 17.0912 81.9828 17.1505 81.9622 17.2121C81.9417 17.2759 81.9167 17.3215 81.8893 17.3488L80.8498 19.2842C80.7518 19.4643 80.6515 19.5783 80.5466 19.6261C80.444 19.6763 80.3415 19.6922 80.2457 19.6786C80.1477 19.6649 80.0611 19.6375 79.9859 19.5965C79.9083 19.5532 79.8559 19.5258 79.8286 19.5122C79.5505 19.3321 79.2313 19.1793 78.8711 19.054C78.511 18.9286 78.1508 18.8534 77.7906 18.826C77.166 18.826 76.5938 18.9924 76.0718 19.3252C75.5521 19.658 75.1076 20.0843 74.7405 20.6041C74.3735 21.1261 74.0886 21.712 73.888 22.3639C73.6874 23.0159 73.5848 23.6542 73.5848 24.2788V35.1204C73.5848 35.7313 73.2816 36.0368 72.6707 36.0368H70.9428C70.3045 36.0368 69.9854 35.7313 69.9854 35.1204V29.7133C70.284 29.5902 70.5712 29.3417 70.7217 29.059C71.116 28.3113 70.5438 27.3129 69.9854 26.8296V23.7203C70.3204 22.9703 70.6282 22.0676 70.4937 21.9923C70.4253 21.9536 70.211 22.1177 69.9854 22.4141V21.5022C70.3341 21.2515 70.635 20.8639 70.7217 20.3966C70.8516 19.7014 70.4595 19.0859 69.9854 18.7075V16.5783C69.9854 16.3002 70.0765 16.0791 70.2566 15.9127C70.4367 15.7463 70.651 15.662 70.9017 15.662H72.4199C72.7117 15.662 72.9442 15.7531 73.1175 15.9332C73.2907 16.1133 73.3774 16.3276 73.3774 16.5783L73.5848 18.035C73.7535 17.7159 73.97 17.3944 74.2413 17.0662C74.5126 16.7402 74.8386 16.4438 75.2193 16.1726C75.5999 15.9013 76.0445 15.6802 76.5505 15.5069C77.0566 15.3337 77.6379 15.2471 78.2899 15.2471C78.9145 15.2471 79.5026 15.3542 80.0588 15.5685C80.6127 15.7851 81.0709 16.0312 81.4311 16.3071C81.8072 16.5852 81.9942 16.8268 81.9942 17.0365Z"
          fill="white"/>
    <path d="M102.659 30.0121C102.166 28.7287 101.92 27.3518 101.92 25.8815C101.92 24.4112 102.164 23.0298 102.65 21.7395C102.722 21.548 102.798 21.3588 102.88 21.1742C102.417 20.1188 101.82 19.1818 101.086 18.368C100.226 17.4106 99.2142 16.6538 98.0471 16.0999C96.8822 15.5459 95.633 15.2678 94.3017 15.2678C92.8861 15.2678 91.6529 15.5687 90.5974 16.1728C89.542 16.7769 88.6826 17.5633 88.0169 18.5344V6.15178C88.0169 5.83264 87.9189 5.58417 87.7251 5.4018C87.5314 5.22171 87.2396 5.13281 86.8521 5.13281H85.6439C85.2837 5.13281 84.9897 5.22171 84.7594 5.4018C84.5315 5.58417 84.4175 5.83264 84.4175 6.15178V7.70873C84.5998 7.71785 84.7594 7.77028 84.8552 7.85918C85.2518 8.2262 84.9053 9.4868 84.4175 10.0681V11.9875C85.0672 12.3978 85.3453 12.4958 85.3111 12.6463C85.2746 12.799 84.9349 12.9153 84.4175 12.986V34.9748C84.4175 35.3076 84.5178 35.5674 84.7184 35.7544C84.919 35.9436 85.2085 36.037 85.5823 36.037H86.8315C87.1917 36.037 87.479 35.9459 87.6955 35.7658C87.9098 35.5857 88.0169 35.3213 88.0169 34.9748V33.2673C88.6962 34.2111 89.5784 34.9793 90.659 35.5674C91.7418 36.1579 92.9568 36.4519 94.3017 36.4519C95.633 36.4519 96.8822 36.1784 98.0471 35.6313C99.2142 35.0819 100.226 34.3296 101.086 33.3722C101.822 32.5538 102.422 31.6169 102.887 30.5615C102.807 30.3814 102.729 30.199 102.659 30.0121ZM99.734 28.658C99.3875 29.5266 98.9247 30.2834 98.3503 30.9262C97.7735 31.5713 97.1079 32.0865 96.3511 32.4672C95.5965 32.8502 94.8009 33.0394 93.9689 33.0394C93.1369 33.0394 92.339 32.8502 91.5753 32.4672C90.8117 32.0865 90.1392 31.5713 89.5579 30.9262C88.9744 30.2834 88.5139 29.5266 88.1742 28.658C87.8323 27.7918 87.6636 26.8731 87.6636 25.902C87.6636 24.9309 87.8323 24.0123 88.1742 23.1437C88.5139 22.2775 88.9744 21.5184 89.5579 20.8665C90.1392 20.2122 90.8117 19.6993 91.5753 19.3255C92.339 18.9516 93.1369 18.7624 93.9689 18.7624C94.8009 18.7624 95.5965 18.9516 96.3511 19.3255C97.1079 19.6993 97.7735 20.2122 98.3503 20.8665C98.9247 21.5184 99.3875 22.2775 99.734 23.1437C100.08 24.0123 100.254 24.9309 100.254 25.902C100.254 26.8731 100.08 27.7918 99.734 28.658Z"
          fill="white"/>
    <path d="M122.89 15.8603C122.669 15.6733 122.411 15.5799 122.122 15.5799H120.913C120.553 15.5799 120.302 15.6688 120.166 15.8489C120.027 16.0312 119.942 16.2934 119.915 16.6399L119.769 18.7211C119.45 18.2766 119.106 17.8481 118.739 17.4309C118.372 17.016 117.939 16.6467 117.439 16.3276C116.94 16.0084 116.366 15.7531 115.72 15.5594C115.075 15.3633 114.33 15.2676 113.484 15.2676C112.014 15.2676 110.667 15.5457 109.447 16.0996C108.225 16.6536 107.174 17.4104 106.294 18.3678C105.544 19.1816 104.938 20.1185 104.475 21.174C104.393 21.3586 104.318 21.5478 104.245 21.7393C103.76 23.0295 103.516 24.411 103.516 25.8813C103.516 27.3516 103.762 28.7285 104.254 30.0119C104.325 30.1988 104.402 30.3812 104.482 30.5613C104.949 31.6167 105.56 32.5536 106.315 33.372C107.195 34.3294 108.248 35.0817 109.468 35.631C110.689 36.1781 112.028 36.4517 113.484 36.4517C114.316 36.4517 115.055 36.3628 115.7 36.1827C116.345 36.0026 116.915 35.7541 117.407 35.4441C117.9 35.1318 118.337 34.7671 118.718 34.3499C119.099 33.935 119.45 33.4974 119.769 33.0392V34.9745C119.769 35.2937 119.849 35.5513 120.008 35.745C120.168 35.9388 120.428 36.0368 120.788 36.0368H122.122C122.425 36.0368 122.687 35.9525 122.901 35.7861C123.115 35.6196 123.225 35.3985 123.225 35.1204V16.6399C123.225 16.3071 123.113 16.0472 122.89 15.8603ZM119.343 28.7308C119.058 29.5924 118.65 30.3333 118.114 30.9579C117.581 31.5825 116.924 32.0749 116.149 32.4351C115.372 32.7975 114.483 32.9776 113.484 32.9776C112.499 32.9776 111.608 32.7907 110.81 32.4146C110.012 32.0407 109.329 31.5346 108.761 30.8964C108.191 30.2581 107.753 29.5081 107.45 28.6487C107.145 27.7893 106.992 26.8661 106.992 25.8813C106.992 24.9102 107.14 23.9892 107.439 23.123C107.737 22.2568 108.168 21.4999 108.729 20.8548C109.29 20.2097 109.974 19.6968 110.778 19.3138C111.583 18.9331 112.486 18.7417 113.484 18.7417C114.496 18.7417 115.394 18.9377 116.179 19.3252C116.963 19.7128 117.622 20.2348 118.157 20.8867C118.691 21.5387 119.092 22.3001 119.363 23.1754C119.635 24.0485 119.769 24.9717 119.769 25.9428C119.769 26.9413 119.628 27.8714 119.343 28.7308Z"
          fill="white"/>
    <path d="M130.355 18.4518C130.675 18.0643 131.046 17.6745 131.468 17.287C131.892 16.8994 132.359 16.5507 132.872 16.2475C133.385 15.942 133.93 15.6958 134.507 15.5089C135.083 15.322 135.683 15.2285 136.307 15.2285C137.5 15.2285 138.601 15.4542 139.606 15.9056C140.611 16.3569 141.48 16.9747 142.207 17.7588C142.936 18.543 143.504 19.4617 143.914 20.5171C144.322 21.5726 144.528 22.7033 144.528 23.9091V34.9811C144.528 35.3276 144.43 35.592 144.236 35.7721C144.042 35.9522 143.805 36.0433 143.529 36.0433H141.822C141.462 36.0433 141.218 35.9613 141.092 35.7926C140.967 35.6262 140.905 35.3686 140.905 35.0221V23.9091C140.905 23.2162 140.771 22.5574 140.5 21.9328C140.228 21.3081 139.857 20.7633 139.387 20.2983C138.915 19.8333 138.37 19.4663 137.753 19.195C137.135 18.9237 136.481 18.7892 135.785 18.7892C135.12 18.7892 134.47 18.9169 133.839 19.1745C133.207 19.4321 132.642 19.7808 132.143 20.2254C131.643 20.6699 131.231 21.1942 130.905 21.796C130.579 22.4001 130.394 23.0406 130.353 23.7199V35.1247C130.353 35.4301 130.271 35.6581 130.102 35.8108C129.936 35.9636 129.715 36.0388 129.437 36.0388H127.729C127.077 36.0388 126.751 35.7333 126.751 35.1224V16.5803C126.751 16.3022 126.843 16.0811 127.023 15.9147C127.203 15.7483 127.424 15.6639 127.688 15.6639H129.25C129.528 15.6639 129.749 15.746 129.916 15.9147C130.082 16.0811 130.18 16.3022 130.207 16.5803L130.355 18.4518Z"
          fill="white"/>
    <path d="M166.555 34.9738C166.555 35.3066 166.455 35.5665 166.254 35.7534C166.053 35.9403 165.766 36.0338 165.39 36.0338H164.141C163.781 36.0338 163.491 35.9426 163.277 35.7625C163.063 35.5824 162.955 35.318 162.955 34.9715V33.2641C162.623 33.736 162.256 34.1668 161.852 34.5543C161.449 34.9441 160.995 35.2792 160.489 35.5642C159.983 35.8491 159.417 36.0657 158.793 36.2207C158.168 36.3734 157.462 36.4487 156.671 36.4487C155.214 36.4487 153.899 36.1751 152.727 35.6257C151.555 35.0786 150.552 34.3241 149.72 33.3667C148.888 32.4093 148.245 31.29 147.796 30.0066C147.345 28.7232 147.119 27.3463 147.119 25.876C147.119 24.4057 147.345 23.0242 147.796 21.734C148.248 20.4438 148.888 19.3199 149.72 18.3625C150.552 17.4051 151.555 16.6483 152.727 16.0943C153.899 15.5404 155.214 15.2623 156.671 15.2623C157.462 15.2623 158.168 15.3421 158.793 15.5016C159.417 15.6612 159.983 15.8823 160.489 16.1673C160.995 16.4522 161.449 16.7942 161.852 17.1976C162.253 17.6011 162.623 18.0434 162.955 18.5289V6.14625C162.955 5.82711 163.051 5.57636 163.247 5.39627C163.441 5.21618 163.733 5.125 164.12 5.125H165.328C165.689 5.125 165.985 5.21618 166.213 5.39627C166.441 5.57636 166.557 5.82711 166.557 6.14625V34.9738H166.555ZM163.306 25.9011C163.306 24.93 163.154 24.0113 162.848 23.1428C162.543 22.2765 162.116 21.5152 161.569 20.8632C161.022 20.2112 160.359 19.6983 159.582 19.3222C158.804 18.9484 157.945 18.7592 157.001 18.7592C155.962 18.7592 155.048 18.9461 154.266 19.3222C153.481 19.6961 152.825 20.2112 152.298 20.8632C151.772 21.5152 151.375 22.2743 151.113 23.1428C150.849 24.009 150.719 24.93 150.719 25.9011C150.719 26.8722 150.851 27.7908 151.113 28.6594C151.377 29.5256 151.772 30.2824 152.298 30.9275C152.825 31.5727 153.481 32.0856 154.266 32.4685C155.05 32.8492 155.962 33.0407 157.001 33.0407C157.931 33.0407 158.784 32.8492 159.561 32.4685C160.338 32.0878 161.004 31.5727 161.558 30.9275C162.112 30.2824 162.543 29.5256 162.848 28.6594C163.154 27.7908 163.306 26.8722 163.306 25.9011Z"
          fill="white"/>
    <path d="M187.625 17.5148C185.822 21.8163 184.046 26.127 182.298 30.4491C180.549 34.7712 178.773 39.0682 176.97 43.3424C176.763 43.8279 176.394 44.0718 175.867 44.0718H174.203C173.565 44.0718 173.245 43.8348 173.245 43.3652C173.245 43.2398 173.273 43.0939 173.328 42.9275L176.325 35.6237L168.666 17.1022C168.584 16.9084 168.531 16.7374 168.508 16.5915C168.488 16.4456 168.477 16.3453 168.477 16.2906C168.477 15.8461 168.775 15.625 169.372 15.625H171.141C171.406 15.625 171.629 15.6911 171.818 15.8233C172.005 15.9555 172.142 16.1402 172.224 16.375C172.682 17.5809 173.161 18.821 173.66 20.0907C174.16 21.3604 174.663 22.6324 175.169 23.909C175.675 25.1855 176.182 26.4553 176.688 27.7182C177.194 28.981 177.697 30.2143 178.197 31.4225L184.149 16.3134C184.26 16.0627 184.406 15.8872 184.586 15.7823C184.766 15.6774 184.994 15.625 185.272 15.625H186.98C187.326 15.625 187.577 15.7025 187.73 15.853C187.883 16.0057 187.958 16.2063 187.958 16.457C187.958 16.5277 187.944 16.628 187.917 16.758C187.887 16.8856 187.791 17.1386 187.625 17.5148Z"
          fill="white"/>
    <path d="M26.687 34.2085C24.2957 32.4761 22.7388 29.6631 22.7388 26.4853C22.7388 21.2241 27.0039 16.959 32.2651 16.959C37.5264 16.959 41.7915 21.2241 41.7915 26.4853C41.7915 29.4989 40.3257 32.5923 37.8843 34.302"
          stroke="white" stroke-width="4" stroke-miterlimit="10" stroke-linecap="round"/>
    <path d="M43.9092 6.46578L45.0034 6.98324C45.0034 6.98324 44.8939 4.63755 44.4859 4.39136C44.1987 4.21811 43.9092 6.46578 43.9092 6.46578Z"
          fill="white"/>
    <path d="M44.1714 16.0832C44.0893 15.9418 44.1486 15.7618 44.3013 15.6979C45.9403 15.0209 47.2101 13.5369 47.2101 11.6471C47.2101 9.49748 45.546 7.63506 43.5057 6.93067C43.3712 6.88508 43.2983 6.73919 43.3393 6.6047C43.7177 5.34637 43.8956 4.22938 43.4214 3.91023C43.4146 3.90568 43.4032 3.9034 43.3895 3.9034C42.9244 3.9034 38.7004 6.20121 37.8706 7.75361C37.8091 7.86758 37.6723 7.91546 37.5492 7.87442C36.0652 7.35696 34.3555 7.05833 32.5888 7.05833C29.4134 7.05833 26.6665 7.73765 25.0275 8.98686C25.0275 8.98686 23.5549 8.14569 22.6636 7.05833C22.0754 6.34254 20.7989 4.59867 20.849 2.79096C20.8718 2.02046 20.8012 0.627645 20.3156 0.33586C20.0649 0.183128 19.0892 1.13599 18.7153 4.06981C18.6538 4.55308 18.7336 5.77265 19.4083 7.32504C19.6226 7.81971 20.7009 9.40402 22.1119 10.8014C22.2168 10.9085 22.2168 11.0795 22.1096 11.1844C20.8376 12.4359 19.8255 13.9427 19.1644 15.6204C18.5991 17.0543 18.2891 18.6112 18.2891 20.2388C18.2891 20.4531 18.2936 20.6651 18.305 20.8771C18.3096 20.9615 18.3141 21.0458 18.321 21.1302C18.3438 21.4903 18.3848 21.8437 18.4395 22.1947C18.4418 22.2061 18.4441 22.2175 18.4464 22.2289C18.6561 23.0222 19.0892 23.6012 19.7434 23.6012C19.9554 23.6012 20.1036 23.4303 20.3224 23.1727C20.3954 23.0883 21.175 21.5724 21.3619 21.1758C22.3649 19.0444 23.9128 17.248 25.8185 15.9852C27.7151 14.7245 29.9628 13.9951 32.3746 13.9951C35.1716 13.9951 37.7498 14.9753 39.8128 16.628C41.7391 18.1644 43.2162 20.2867 44.0073 22.7418C44.1531 23.1955 44.2762 23.6605 44.372 24.1346C44.3765 24.1597 44.3857 24.1871 44.3993 24.2099C44.755 24.839 45.9973 24.5176 46.2959 23.8246C46.3051 23.7995 46.3119 23.7722 46.3142 23.7448C46.3415 23.4553 46.3552 23.1567 46.3552 22.8535C46.3552 22.6985 46.3529 22.5412 46.3438 22.3839C46.2458 20.248 45.3932 18.1416 44.1714 16.0832ZM43.7246 10.2292C43.8294 9.94656 44.144 9.80067 44.4267 9.90553C44.7094 10.0104 44.8553 10.3227 44.7527 10.6076C44.6478 10.8903 44.3332 11.0362 44.0506 10.9313C43.7656 10.8288 43.6197 10.5142 43.7246 10.2292ZM42.2862 13.1813C42.1927 13.0035 42.6122 12.641 43.2026 12.3264C43.793 12.0141 44.331 11.866 44.4244 12.0438C44.5202 12.2216 43.9457 12.2991 43.3553 12.6137C42.7649 12.9282 42.3819 13.3591 42.2862 13.1813ZM43.8796 13.8537C43.7611 13.7694 43.9161 13.3956 44.1965 12.9966C44.4791 12.6 44.78 12.3287 44.8986 12.4131C45.0194 12.4974 44.6706 12.7368 44.3902 13.1334C44.1076 13.5323 44.0004 13.9404 43.8796 13.8537Z"
          fill="white"/>
    <path d="M45.4911 11.6384C45.6051 11.1688 46.4508 11.1939 46.9204 11.3079C47.39 11.4219 47.3057 11.5792 47.1917 12.0488C47.0777 12.5184 46.6058 12.8079 46.1363 12.6939C45.6667 12.5822 45.3771 12.1103 45.4911 11.6384Z"
          fill="white"/>
    <path d="M36.6282 37.8077C36.6282 39.0295 34.7133 39.7727 32.3517 39.7727C29.99 39.7727 28.0752 39.0295 28.0752 37.8077C28.0752 36.5858 29.99 37.8077 32.3517 37.8077C34.7133 37.8077 36.6282 36.5858 36.6282 37.8077Z"
          fill="white"/>
    <path d="M36.6282 40.543C36.6282 41.7649 34.7133 42.508 32.3517 42.508C29.99 42.508 28.0752 41.7649 28.0752 40.543C28.0752 39.3212 29.99 40.543 32.3517 40.543C34.7133 40.543 36.6282 39.3212 36.6282 40.543Z"
          fill="white"/>
    <path d="M32.4021 43.6298C33.1065 43.7734 33.6832 45.221 33.535 45.9368C33.3869 46.6525 32.6984 47.1176 31.994 46.974C31.2897 46.8303 30.8406 46.1351 30.9865 45.4193C31.1369 44.7035 31.7 43.4862 32.4021 43.6298Z"
          fill="white"/>
    <path d="M48.9813 26.6377L47.8802 27.0184L44.9806 28.0192L44.9738 28.0214L44.6957 27.219C44.6888 27.1985 44.6843 27.1803 44.6843 27.1598C44.666 27.023 44.7435 26.8862 44.8803 26.8383L45.5687 26.6035C45.8674 26.501 46.0269 26.175 45.9244 25.8764L45.9221 25.8718C45.8993 25.8011 45.8127 25.6826 45.8104 25.6803L45.7352 25.5526L44.8005 23.9319L44.8142 23.9273C44.7868 23.8794 44.7663 23.8316 44.7481 23.7814C44.7139 23.6834 44.698 23.5899 44.6957 23.4919C44.6888 23.0998 44.9327 22.7283 45.3271 22.5938C45.726 22.457 46.1546 22.6052 46.3894 22.9334C46.4418 23.0041 46.4851 23.0839 46.5125 23.1705C46.5307 23.2229 46.5444 23.2731 46.5512 23.3278L46.5649 23.3232L46.7997 25.1287L46.8271 25.3338C46.8271 25.3338 46.8544 25.4706 46.8795 25.5413C46.973 25.8171 47.2534 25.9721 47.5315 25.9174L47.878 25.7988L48.3339 25.6461C48.4843 25.5937 48.6485 25.6757 48.7009 25.8239L48.767 26.0177L48.8719 26.3186L48.9813 26.6377Z"
          fill="white"/>
    <path d="M49.8908 30.1302L49.5261 30.2556C49.5147 30.2442 49.4987 30.2282 49.4828 30.2146C49.3506 30.0915 49.2047 29.957 49.0907 29.982C48.9585 30.0139 48.8559 30.267 48.849 30.4881L48.4889 30.6112L47.8779 30.8232C47.8688 30.7958 47.8551 30.7708 47.8346 30.7525C47.764 30.6933 47.7161 30.789 47.6477 30.789C47.4813 30.7867 47.1963 30.5314 46.9023 29.6902C46.8453 30.406 46.8612 30.8642 46.9137 31.1537L46.4418 31.3179C46.2754 31.3749 46.0953 31.286 46.0406 31.1241L45.0718 28.3202L45.0786 28.3179L48.0284 27.3013L49.0816 26.9365L49.8635 29.2047L50.0595 29.7723C50.1142 29.9228 50.0367 30.0823 49.8908 30.1302Z"
          fill="white"/>
    <path d="M47.3402 31.3728C47.2103 31.2953 46.6313 31.7033 46.6587 32.2276C46.6678 32.3986 46.7453 32.663 46.8638 32.6721C47.1214 32.6881 47.5203 31.4822 47.3402 31.3728Z"
          fill="white"/>
    <path d="M48.3136 31.7393C48.1586 31.737 47.9534 32.6055 48.3067 33.2005C48.423 33.3942 48.6532 33.6518 48.7535 33.5812C48.9678 33.4239 48.5256 31.7415 48.3136 31.7393Z"
          fill="white"/>
    <path fillRule="evenodd" clip-rule="evenodd"
          d="M167.414 0.130934C167.143 0.0351922 166.701 0.158288 166.701 0.158288C164.765 -0.66236 163.883 1.97511 163.883 1.97511C162.516 3.27447 162.046 4.79723 162.046 4.79723L163.015 4.6103C164.453 6.50691 168.358 4.59891 166.849 1.43485C166.714 1.20462 166.844 0.627881 166.844 0.627881C167.009 0.383966 167.414 0.130934 167.414 0.130934Z"
          fill="white"/>
</svg>
